<?xml version="1.0" encoding="UTF-8" standalone="no"?>
<!-- Created with Inkscape (http://www.inkscape.org/) -->
<svg xmlns:rdf="http://www.w3.org/1999/02/22-rdf-syntax-ns#" xmlns="http://www.w3.org/2000/svg" version="1.1" xmlns:cc="http://creativecommons.org/ns#" xmlns:dc="http://purl.org/dc/elements/1.1/" viewBox="0 0 398.74 199.25">
<defs></defs>
<metadata>
<rdf:RDF>
<cc:Work rdf:about="">
<dc:format>image/svg+xml</dc:format>
<dc:type rdf:resource="http://purl.org/dc/dcmitype/StillImage"/>
<dc:title/>
</cc:Work>
</rdf:RDF>
</metadata>
<g fill="#FFF" transform="translate(-113.48701,-257.71616)">
<path d="m118,302.79,0,26.175,8.1857,0c-4.4521,8.5778-6.9704,18.314-6.9704,28.646,0,34.393,27.886,62.28,62.279,62.28,34.392,0,62.283-27.888,62.283-62.28,0-10.332-2.5229-20.069-6.975-28.646h8.1857v-26.175h-33.833l-14.345,25.38c10.623,5.5354,17.878,16.635,17.878,29.441,0,18.332-14.863,33.193-33.193,33.193-18.331,0-33.193-14.861-33.193-33.193,0-12.753,7.1945-23.816,17.744-29.375l-14.565-25.446h-33.48z" fill-opacity="0.6543779"/>
<g style="letter-spacing:0px;word-spacing:0px;" font-weight="normal" font-size="96.03953552px" font-style="normal" font-stretch="normal" line-height="125%" font-variant="normal" font-family="Montserrat Alternates">
<path d="m303.54,354.46c-3.2654,0.00006-5.9545,0.67233-8.0673,2.0168-2.1129,1.3446-3.1693,3.3934-3.1693,6.1465-0.00002,2.6892,1.0564,4.77,3.1693,6.2426,2.1128,1.4086,6.5947,2.9452,13.446,4.6099,6.9148,1.6647,12.101,4.0017,15.558,7.0109,3.5214,3.0093,5.2821,7.4591,5.2822,13.35-0.00006,5.8264-2.209,10.564-6.6267,14.214-4.4179,3.6495-10.212,5.4742-17.383,5.4742-10.5,0-19.816-3.6175-27.948-10.852l7.1069-8.5475c6.7868,5.8904,13.83,8.8356,21.129,8.8356,3.6495,0.00001,6.5306-0.76831,8.6436-2.305,2.1769-1.6006,3.2653-3.6815,3.2654-6.2426-0.00005-2.6251-1.0245-4.6419-3.0733-6.0505-1.9848-1.4726-5.4423-2.7851-10.372-3.9376-4.93-1.2165-8.6756-2.3049-11.237-3.2654-2.5611-1.0244-4.834-2.3369-6.8188-3.9376-3.9696-3.0092-5.9545-7.6191-5.9544-13.83-0.00001-6.2105,2.2409-10.98,6.7228-14.31,4.5458-3.3933,10.148-5.09,16.807-5.0901,4.2897,0.00007,8.5475,0.70436,12.773,2.1129,4.2257,1.4086,7.8752,3.3935,10.949,5.9544l-6.0505,8.5475c-1.9849-1.7927-4.674-3.2653-8.0673-4.4178-3.3934-1.1524-6.7548-1.7286-10.084-1.7287"/>
<path d="m365.49,360.89c6.9788,0.00005,12.773,1.9528,17.383,5.8584,4.6098,3.8416,6.9468,8.8677,7.0109,15.078l0.096,0.19208-37.263,15.654c3.3293,4.0977,7.8432,6.1465,13.542,6.1465,5.7623,0.00001,10.5-2.2409,14.214-6.7228l6.3386,7.0109c-6.0826,6.2746-13.253,9.4119-21.513,9.4119-7.235,0-13.446-2.401-18.632-7.203-5.1862-4.802-7.7792-11.141-7.7792-19.016,0-5.4422,1.3446-10.212,4.0337-14.31,2.6891-4.1617,6.0185-7.2029,9.9881-9.1238,3.9696-1.9848,8.1633-2.9772,12.581-2.9772m-16.231,26.603c-0.00001,0.83237,0.032,1.4406,0.096,1.8248l28.332-12.197c-2.1769-4.2257-6.0505-6.3386-11.621-6.3386-4.2258,0.00004-8.0994,1.4726-11.621,4.4178-3.4574,2.9452-5.1862,7.0429-5.1861,12.293"/>
<path d="m424.27,360.89c6.9788,0.00005,12.773,1.9528,17.383,5.8584,4.6098,3.8416,6.9468,8.8677,7.0109,15.078l0.096,0.19208-37.263,15.654c3.3293,4.0977,7.8432,6.1465,13.542,6.1465,5.7623,0.00001,10.5-2.2409,14.214-6.7228l6.3386,7.0109c-6.0826,6.2746-13.253,9.4119-21.513,9.4119-7.235,0-13.446-2.401-18.632-7.203-5.1861-4.802-7.7792-11.141-7.7792-19.016,0-5.4422,1.3446-10.212,4.0337-14.31,2.6891-4.1617,6.0185-7.2029,9.9881-9.1238,3.9696-1.9848,8.1633-2.9772,12.581-2.9772m-16.231,26.603c-0.00001,0.83237,0.032,1.4406,0.096,1.8248l28.332-12.197c-2.1769-4.2257-6.0505-6.3386-11.621-6.3386-4.2258,0.00004-8.0994,1.4726-11.621,4.4178-3.4574,2.9452-5.1862,7.0429-5.1861,12.293"/>
<path d="m480.64,413.52c-6.4667,0-12.101-2.433-16.903-7.299s-7.203-11.269-7.203-19.208c-0.00001-7.9392,2.465-14.278,7.395-19.016,4.93-4.7379,10.788-7.1069,17.575-7.1069,6.8508,0.00005,12.357,2.8812,16.519,8.6436v-28.044h10.756v71.261h-10.756v-7.6832c-3.9697,5.6343-9.764,8.4515-17.383,8.4515m-13.35-26.027c-0.00001,4.866,1.5686,8.8356,4.7059,11.909,3.1373,3.0733,6.8188,4.6099,11.045,4.6099,4.2257,0.00001,7.8112-1.5366,10.756-4.6099,2.9452-3.1373,4.4178-7.1389,4.4178-12.005-0.00004-4.866-1.4726-8.9316-4.4178-12.197-2.9453-3.2653-6.5627-4.898-10.852-4.898-4.2898,0.00005-7.9713,1.6327-11.045,4.898-3.0733,3.2654-4.6099,7.3631-4.6099,12.293"/>
</g>
<g style="letter-spacing:0px;word-spacing:0px;" font-weight="normal" fill-opacity="0.70046088" font-size="33.89762115px" font-stretch="normal" line-height="125%" font-variant="normal" font-family="Montserrat" font-style="normal">
<path style="" d="m294.94,323.8c1.3785,0.00001,2.5649-0.22598,3.5592-0.67795,0.99431-0.47456,2.0338-1.2203,3.1186-2.2372l2.5762,2.644c-2.5084,2.7796-5.5592,4.1694-9.1524,4.1694-3.5706,0-6.5422-1.1525-8.9151-3.4576-2.3502-2.305-3.5254-5.2202-3.5254-8.7456-0.00001-3.5253,1.1977-6.4631,3.5931-8.8134,2.418-2.3502,5.4575-3.5253,9.1185-3.5254,3.6835,0.00002,6.7569,1.3559,9.2202,4.0677l-2.5423,2.7796c-1.13-1.0847-2.2034-1.8418-3.2203-2.2711-0.99435-0.42935-2.1695-0.64404-3.5254-0.64406-2.3954,0.00002-4.4067,0.77967-6.0338,2.3389-1.6271,1.5367-2.4406,3.5141-2.4406,5.9321,0,2.3954,0.80224,4.4067,2.4067,6.0338,1.6271,1.6045,3.5479,2.4067,5.7626,2.4067"/>
<path style="" d="m312.23,322.68c1.0847,1.0847,2.4519,1.6271,4.1016,1.6271s3.0056-0.54236,4.0677-1.6271c1.0847-1.1073,1.6271-2.531,1.6271-4.2711-0.00001-1.7401-0.54237-3.1525-1.6271-4.2372-1.0621-1.1073-2.418-1.661-4.0677-1.661-1.6497,0.00002-3.0169,0.55368-4.1016,1.661-1.0621,1.0847-1.5932,2.4971-1.5932,4.2372s0.53106,3.1638,1.5932,4.2711m10.881,2.3389c-1.8079,1.7853-4.0677,2.6779-6.7795,2.6779s-4.9716-0.89264-6.7795-2.6779c-1.8079-1.8079-2.7118-4.0112-2.7118-6.61s0.90393-4.7908,2.7118-6.5761c1.8079-1.8078,4.0677-2.7118,6.7795-2.7118,2.7118,0.00002,4.9716,0.90396,6.7795,2.7118,1.8078,1.7853,2.7118,3.9773,2.7118,6.5761-0.00002,2.5988-0.90396,4.8022-2.7118,6.61"/>
<path style="" d="m333.92,317.66,0,9.7625-3.7965,0,0-18.034,3.7965,0,0,3.2881c0.61015-1.1073,1.4463-1.9773,2.5084-2.6101,1.0847-0.63273,2.2485-0.94911,3.4914-0.94913,2.0338,0.00002,3.6722,0.62148,4.9152,1.8644,1.2655,1.2429,1.8982,3.0395,1.8983,5.3897v11.051h-3.7965v-9.8981c-0.00001-3.322-1.3785-4.9829-4.1355-4.983-1.3107,0.00002-2.4519,0.44068-3.4237,1.322-0.97174,0.85875-1.4576,2.1243-1.4576,3.7965"/>
<path style="" d="m359.38,327.69c-2.2824,0-4.2711-0.85874-5.966-2.5762s-2.5423-3.9773-2.5423-6.7795,0.87004-5.0394,2.6101-6.7117,3.8078-2.5084,6.2033-2.5084c2.418,0.00002,4.3615,1.017,5.8304,3.0508v-9.8981h3.7965v25.152h-3.7965v-2.7118c-1.4011,1.9887-3.4463,2.983-6.1355,2.983m-4.7118-9.1863c0,1.7175,0.55366,3.1186,1.661,4.2033s2.4067,1.6271,3.8982,1.6271c1.4915,0.00001,2.757-0.54235,3.7965-1.6271,1.0395-1.1073,1.5593-2.5197,1.5593-4.2372-0.00002-1.7175-0.51978-3.1525-1.5593-4.305s-2.3164-1.7288-3.8304-1.7288c-1.5141,0.00001-2.8135,0.57627-3.8982,1.7288s-1.6271,2.5988-1.6271,4.3389"/>
<path style="" d="m387.41,319.15,0-9.7625,3.7965,0,0,18.034-3.7965,0,0-3.2881c-0.61017,1.1073-1.4576,1.9774-2.5423,2.6101-1.0621,0.63276-2.2147,0.94914-3.4576,0.94914-2.0339,0-3.6836-0.62146-4.949-1.8644-1.2429-1.2429-1.8644-3.0395-1.8644-5.3897v-11.051h3.7965v9.8981c0,3.322,1.3785,4.983,4.1355,4.983,1.3107,0,2.4519-0.42937,3.4237-1.2881,0.97172-0.88133,1.4576-2.1581,1.4576-3.8304"/>
<path style="" d="m404.7,327.69c-2.5084,0-4.6666-0.84744-6.4744-2.5423-1.8079-1.7175-2.7118-3.9547-2.7118-6.7117-0.00001-2.757,0.93783-4.9942,2.8135-6.7117,1.8983-1.7401,4.2033-2.6101,6.9151-2.6101,2.7118,0.00002,5.0055,0.93785,6.8812,2.8135l-2.2372,2.7457c-1.5593-1.3559-3.1299-2.0338-4.7118-2.0339-1.5819,0.00002-2.9604,0.53108-4.1355,1.5932-1.1525,1.0395-1.7288,2.3954-1.7288,4.0677-0.00001,1.6497,0.57625,3.0508,1.7288,4.2033,1.1525,1.1525,2.5649,1.7288,4.2372,1.7288,1.6949,0,3.2881-0.76834,4.7796-2.305l2.2372,2.4406c-2.1921,2.2146-4.7231,3.322-7.5931,3.322"/>
<path style="" d="m420.9,312.44,0,9.1524c0,0.85874,0.22598,1.548,0.67796,2.0678,0.45196,0.49717,1.0847,0.74575,1.8983,0.74575,0.81354,0,1.5932-0.39547,2.3389-1.1864l1.5593,2.6779c-1.3333,1.1977-2.8135,1.7966-4.4406,1.7966-1.6045,0-2.983-0.55366-4.1355-1.661-1.1299-1.1299-1.6949-2.644-1.6949-4.5423v-9.0507h-2.2711v-3.0508h2.2711v-5.6609h3.7965v5.6609h4.7457v3.0508h-4.7457"/>
<path style="" d="m445.01,327.42-3.4576,0,0-2.4067c-1.4915,1.7853-3.4915,2.6779-5.9999,2.6779-1.8757,0-3.435-0.53106-4.6779-1.5932-1.2203-1.0621-1.8305-2.4745-1.8305-4.2372,0-1.7853,0.65535-3.1186,1.9661-3.9999,1.3107-0.88133,3.0847-1.322,5.3219-1.322h4.9152v-0.67795c-0.00002-2.3954-1.3333-3.5931-3.9999-3.5932-1.6723,0.00002-3.4124,0.61017-5.2202,1.8305l-1.6949-2.3728c2.192-1.7401,4.6779-2.6101,7.4575-2.6101,2.1242,0.00002,3.853,0.54238,5.1863,1.6271,1.3559,1.0621,2.0338,2.7457,2.0339,5.0507v11.627m-3.7965-6.7117,0-1.5254-4.2711,0c-2.7344,0.00001-4.1016,0.85875-4.1016,2.5762-0.00001,0.88135,0.33897,1.5593,1.0169,2.0339,0.67795,0.45197,1.6158,0.67796,2.8135,0.67795,1.2203,0.00001,2.2824-0.33897,3.1864-1.0169,0.90393-0.67795,1.3559-1.5932,1.3559-2.7457"/>
<path style="" d="m454.09,317.66,0,9.7625-3.7965,0,0-18.034,3.7965,0,0,3.2881c0.61015-1.1073,1.4463-1.9773,2.5084-2.6101,1.0847-0.63273,2.2485-0.94911,3.4914-0.94913,2.0338,0.00002,3.6722,0.62148,4.9152,1.8644,1.2655,1.2429,1.8982,3.0395,1.8983,5.3897v11.051h-3.7965v-9.8981c-0.00002-3.322-1.3785-4.9829-4.1355-4.983-1.3107,0.00002-2.4519,0.44068-3.4237,1.322-0.97174,0.85875-1.4576,2.1243-1.4576,3.7965"/>
<path style="" d="m480.19,327.69c-2.5084,0-4.6666-0.84744-6.4744-2.5423-1.8079-1.7175-2.7118-3.9547-2.7118-6.7117s0.93783-4.9942,2.8135-6.7117c1.8983-1.7401,4.2033-2.6101,6.9151-2.6101,2.7118,0.00002,5.0055,0.93785,6.8812,2.8135l-2.2372,2.7457c-1.5593-1.3559-3.1299-2.0338-4.7118-2.0339-1.5819,0.00002-2.9604,0.53108-4.1355,1.5932-1.1525,1.0395-1.7288,2.3954-1.7288,4.0677,0,1.6497,0.57626,3.0508,1.7288,4.2033s2.5649,1.7288,4.2372,1.7288c1.6949,0,3.2881-0.76834,4.7796-2.305l2.2372,2.4406c-2.1921,2.2146-4.7231,3.322-7.5931,3.322"/>
<path style="" d="m508.49,320.07-14.135,0c0.0904,1.3107,0.68925,2.3728,1.7966,3.1864,1.1073,0.79095,2.3728,1.1864,3.7965,1.1864,2.2598,0,3.9773-0.71185,5.1524-2.1356l2.1694,2.3728c-1.9435,2.0113-4.4745,3.0169-7.5931,3.0169-2.531,0-4.6892-0.83614-6.4744-2.5084-1.7627-1.6949-2.644-3.9547-2.644-6.7795,0-2.8474,0.90393-5.1072,2.7118-6.7795s3.9321-2.5084,6.3728-2.5084c2.4632,0.00002,4.5536,0.74577,6.2711,2.2372,1.7175,1.4689,2.5762,3.5028,2.5762,6.1016v2.6101m-14.135-2.983,10.339,0c-0.00002-1.5141-0.47459-2.6779-1.4237-3.4914-0.94915-0.81353-2.1243-1.2203-3.5254-1.2203-1.3785,0.00002-2.6214,0.42939-3.7287,1.2881-1.1073,0.83616-1.661,1.9774-1.661,3.4237"/>
</g>
</g>
</svg>
