<?xml version="1.0" encoding="UTF-8" standalone="no"?>
<!-- Created with Inkscape (http://www.inkscape.org/) -->

<svg
   xmlns:dc="http://purl.org/dc/elements/1.1/"
   xmlns:cc="http://creativecommons.org/ns#"
   xmlns:rdf="http://www.w3.org/1999/02/22-rdf-syntax-ns#"
   xmlns:svg="http://www.w3.org/2000/svg"
   xmlns="http://www.w3.org/2000/svg"
   version="1.1"
   width="398.73999"
   height="199.24951"
   id="svg4608">
  <defs
     id="defs4610">
    <clipPath
       id="clipPath5315">
      <rect
         width="1330.6204"
         height="199.24951"
         x="-145.5592"
         y="519.15247"
         id="rect5317"
         style="color:#000000;fill:#ffffff;fill-opacity:1;fill-rule:nonzero;stroke:none;stroke-width:1;marker:none;visibility:visible;display:inline;overflow:visible;enable-background:accumulate" />
    </clipPath>
    <marker
       refX="0"
       refY="0"
       orient="auto"
       id="DotL9"
       style="overflow:visible">
      <path
         d="m -2.5,-1 c 0,2.76 -2.24,5 -5,5 -2.76,0 -5,-2.24 -5,-5 0,-2.76 2.24,-5 5,-5 2.76,0 5,2.24 5,5 z"
         transform="matrix(0.8,0,0,0.8,5.92,0.8)"
         id="path6363"
         style="fill:#ffffff;fill-rule:evenodd;stroke:#ffffff;stroke-width:1pt" />
    </marker>
    <marker
       refX="0"
       refY="0"
       orient="auto"
       id="DotLj"
       style="overflow:visible">
      <path
         d="m -2.5,-1 c 0,2.76 -2.24,5 -5,5 -2.76,0 -5,-2.24 -5,-5 0,-2.76 2.24,-5 5,-5 2.76,0 5,2.24 5,5 z"
         transform="matrix(0.8,0,0,0.8,5.92,0.8)"
         id="path6366"
         style="fill:#ffffff;fill-rule:evenodd;stroke:#ffffff;stroke-width:1pt" />
    </marker>
    <marker
       refX="0"
       refY="0"
       orient="auto"
       id="DotLy"
       style="overflow:visible">
      <path
         d="m -2.5,-1 c 0,2.76 -2.24,5 -5,5 -2.76,0 -5,-2.24 -5,-5 0,-2.76 2.24,-5 5,-5 2.76,0 5,2.24 5,5 z"
         transform="matrix(0.8,0,0,0.8,5.92,0.8)"
         id="path6369"
         style="fill:#ffffff;fill-rule:evenodd;stroke:#ffffff;stroke-width:1pt" />
    </marker>
    <marker
       refX="0"
       refY="0"
       orient="auto"
       id="DotLQ"
       style="overflow:visible">
      <path
         d="m -2.5,-1 c 0,2.76 -2.24,5 -5,5 -2.76,0 -5,-2.24 -5,-5 0,-2.76 2.24,-5 5,-5 2.76,0 5,2.24 5,5 z"
         transform="matrix(0.8,0,0,0.8,5.92,0.8)"
         id="path6354"
         style="fill:#ffffff;fill-rule:evenodd;stroke:#ffffff;stroke-width:1pt" />
    </marker>
    <marker
       refX="0"
       refY="0"
       orient="auto"
       id="DotL4"
       style="overflow:visible">
      <path
         d="m -2.5,-1 c 0,2.76 -2.24,5 -5,5 -2.76,0 -5,-2.24 -5,-5 0,-2.76 2.24,-5 5,-5 2.76,0 5,2.24 5,5 z"
         transform="matrix(0.8,0,0,0.8,5.92,0.8)"
         id="path6357"
         style="fill:#ffffff;fill-rule:evenodd;stroke:#ffffff;stroke-width:1pt" />
    </marker>
    <marker
       refX="0"
       refY="0"
       orient="auto"
       id="DotL6"
       style="overflow:visible">
      <path
         d="m -2.5,-1 c 0,2.76 -2.24,5 -5,5 -2.76,0 -5,-2.24 -5,-5 0,-2.76 2.24,-5 5,-5 2.76,0 5,2.24 5,5 z"
         transform="matrix(0.8,0,0,0.8,5.92,0.8)"
         id="path6360"
         style="fill:#ffffff;fill-rule:evenodd;stroke:#ffffff;stroke-width:1pt" />
    </marker>
    <marker
       refX="0"
       refY="0"
       orient="auto"
       id="DotLG"
       style="overflow:visible">
      <path
         d="m -2.5,-1 c 0,2.76 -2.24,5 -5,5 -2.76,0 -5,-2.24 -5,-5 0,-2.76 2.24,-5 5,-5 2.76,0 5,2.24 5,5 z"
         transform="matrix(0.8,0,0,0.8,5.92,0.8)"
         id="path6381"
         style="fill:#ffffff;fill-rule:evenodd;stroke:#ffffff;stroke-width:1pt" />
    </marker>
    <marker
       refX="0"
       refY="0"
       orient="auto"
       id="DotL2Q"
       style="overflow:visible">
      <path
         d="m -2.5,-1 c 0,2.76 -2.24,5 -5,5 -2.76,0 -5,-2.24 -5,-5 0,-2.76 2.24,-5 5,-5 2.76,0 5,2.24 5,5 z"
         transform="matrix(0.8,0,0,0.8,5.92,0.8)"
         id="path6384"
         style="fill:#ffffff;fill-rule:evenodd;stroke:#ffffff;stroke-width:1pt" />
    </marker>
    <marker
       refX="0"
       refY="0"
       orient="auto"
       id="DotL6x"
       style="overflow:visible">
      <path
         d="m -2.5,-1 c 0,2.76 -2.24,5 -5,5 -2.76,0 -5,-2.24 -5,-5 0,-2.76 2.24,-5 5,-5 2.76,0 5,2.24 5,5 z"
         transform="matrix(0.8,0,0,0.8,5.92,0.8)"
         id="path6387"
         style="fill:#ffffff;fill-rule:evenodd;stroke:#ffffff;stroke-width:1pt" />
    </marker>
    <marker
       refX="0"
       refY="0"
       orient="auto"
       id="DotLg"
       style="overflow:visible">
      <path
         d="m -2.5,-1 c 0,2.76 -2.24,5 -5,5 -2.76,0 -5,-2.24 -5,-5 0,-2.76 2.24,-5 5,-5 2.76,0 5,2.24 5,5 z"
         transform="matrix(0.8,0,0,0.8,5.92,0.8)"
         id="path6345"
         style="fill:#ffffff;fill-rule:evenodd;stroke:#ffffff;stroke-width:1pt" />
    </marker>
    <marker
       refX="0"
       refY="0"
       orient="auto"
       id="DotLz"
       style="overflow:visible">
      <path
         d="m -2.5,-1 c 0,2.76 -2.24,5 -5,5 -2.76,0 -5,-2.24 -5,-5 0,-2.76 2.24,-5 5,-5 2.76,0 5,2.24 5,5 z"
         transform="matrix(0.8,0,0,0.8,5.92,0.8)"
         id="path6348"
         style="fill:#ffffff;fill-rule:evenodd;stroke:#ffffff;stroke-width:1pt" />
    </marker>
    <marker
       refX="0"
       refY="0"
       orient="auto"
       id="DotLZ"
       style="overflow:visible">
      <path
         d="m -2.5,-1 c 0,2.76 -2.24,5 -5,5 -2.76,0 -5,-2.24 -5,-5 0,-2.76 2.24,-5 5,-5 2.76,0 5,2.24 5,5 z"
         transform="matrix(0.8,0,0,0.8,5.92,0.8)"
         id="path6351"
         style="fill:#ffffff;fill-rule:evenodd;stroke:#ffffff;stroke-width:1pt" />
    </marker>
    <marker
       refX="0"
       refY="0"
       orient="auto"
       id="DotLW"
       style="overflow:visible">
      <path
         d="m -2.5,-1 c 0,2.76 -2.24,5 -5,5 -2.76,0 -5,-2.24 -5,-5 0,-2.76 2.24,-5 5,-5 2.76,0 5,2.24 5,5 z"
         transform="matrix(0.8,0,0,0.8,5.92,0.8)"
         id="path6372"
         style="fill:#ffffff;fill-rule:evenodd;stroke:#ffffff;stroke-width:1pt" />
    </marker>
    <marker
       refX="0"
       refY="0"
       orient="auto"
       id="DotLS"
       style="overflow:visible">
      <path
         d="m -2.5,-1 c 0,2.76 -2.24,5 -5,5 -2.76,0 -5,-2.24 -5,-5 0,-2.76 2.24,-5 5,-5 2.76,0 5,2.24 5,5 z"
         transform="matrix(0.8,0,0,0.8,5.92,0.8)"
         id="path6375"
         style="fill:#ffffff;fill-rule:evenodd;stroke:#ffffff;stroke-width:1pt" />
    </marker>
    <marker
       refX="0"
       refY="0"
       orient="auto"
       id="DotL2"
       style="overflow:visible">
      <path
         d="m -2.5,-1 c 0,2.76 -2.24,5 -5,5 -2.76,0 -5,-2.24 -5,-5 0,-2.76 2.24,-5 5,-5 2.76,0 5,2.24 5,5 z"
         transform="matrix(0.8,0,0,0.8,5.92,0.8)"
         id="path6378"
         style="fill:#ffffff;fill-rule:evenodd;stroke:#ffffff;stroke-width:1pt" />
    </marker>
    <marker
       refX="0"
       refY="0"
       orient="auto"
       id="DotLF"
       style="overflow:visible">
      <path
         d="m -2.5,-1 c 0,2.76 -2.24,5 -5,5 -2.76,0 -5,-2.24 -5,-5 0,-2.76 2.24,-5 5,-5 2.76,0 5,2.24 5,5 z"
         transform="matrix(0.8,0,0,0.8,5.92,0.8)"
         id="path6336"
         style="fill:#ffffff;fill-rule:evenodd;stroke:#ffffff;stroke-width:1pt" />
    </marker>
    <marker
       refX="0"
       refY="0"
       orient="auto"
       id="DotLK"
       style="overflow:visible">
      <path
         d="m -2.5,-1 c 0,2.76 -2.24,5 -5,5 -2.76,0 -5,-2.24 -5,-5 0,-2.76 2.24,-5 5,-5 2.76,0 5,2.24 5,5 z"
         transform="matrix(0.8,0,0,0.8,5.92,0.8)"
         id="path6339"
         style="fill:#ffffff;fill-rule:evenodd;stroke:#ffffff;stroke-width:1pt" />
    </marker>
    <marker
       refX="0"
       refY="0"
       orient="auto"
       id="DotLA"
       style="overflow:visible">
      <path
         d="m -2.5,-1 c 0,2.76 -2.24,5 -5,5 -2.76,0 -5,-2.24 -5,-5 0,-2.76 2.24,-5 5,-5 2.76,0 5,2.24 5,5 z"
         transform="matrix(0.8,0,0,0.8,5.92,0.8)"
         id="path6342"
         style="fill:#ffffff;fill-rule:evenodd;stroke:#ffffff;stroke-width:1pt" />
    </marker>
    <marker
       refX="0"
       refY="0"
       orient="auto"
       id="marker4792"
       style="overflow:visible">
      <path
         d="m -2.5,-1 c 0,2.76 -2.24,5 -5,5 -2.76,0 -5,-2.24 -5,-5 0,-2.76 2.24,-5 5,-5 2.76,0 5,2.24 5,5 z"
         transform="matrix(0.8,0,0,0.8,5.92,0.8)"
         id="path4794"
         style="fill:#ffffff;fill-rule:evenodd;stroke:#ffffff;stroke-width:1pt" />
    </marker>
    <marker
       refX="0"
       refY="0"
       orient="auto"
       id="marker4796"
       style="overflow:visible">
      <path
         d="m -2.5,-1 c 0,2.76 -2.24,5 -5,5 -2.76,0 -5,-2.24 -5,-5 0,-2.76 2.24,-5 5,-5 2.76,0 5,2.24 5,5 z"
         transform="matrix(0.8,0,0,0.8,5.92,0.8)"
         id="path4798"
         style="fill:#ffffff;fill-rule:evenodd;stroke:#ffffff;stroke-width:1pt" />
    </marker>
    <marker
       refX="0"
       refY="0"
       orient="auto"
       id="marker4800"
       style="overflow:visible">
      <path
         d="m -2.5,-1 c 0,2.76 -2.24,5 -5,5 -2.76,0 -5,-2.24 -5,-5 0,-2.76 2.24,-5 5,-5 2.76,0 5,2.24 5,5 z"
         transform="matrix(0.8,0,0,0.8,5.92,0.8)"
         id="path4802"
         style="fill:#ffffff;fill-rule:evenodd;stroke:#ffffff;stroke-width:1pt" />
    </marker>
    <marker
       refX="0"
       refY="0"
       orient="auto"
       id="marker4804"
       style="overflow:visible">
      <path
         d="m -2.5,-1 c 0,2.76 -2.24,5 -5,5 -2.76,0 -5,-2.24 -5,-5 0,-2.76 2.24,-5 5,-5 2.76,0 5,2.24 5,5 z"
         transform="matrix(0.8,0,0,0.8,5.92,0.8)"
         id="path4806"
         style="fill:#ffffff;fill-rule:evenodd;stroke:#ffffff;stroke-width:1pt" />
    </marker>
    <marker
       refX="0"
       refY="0"
       orient="auto"
       id="marker4808"
       style="overflow:visible">
      <path
         d="m -2.5,-1 c 0,2.76 -2.24,5 -5,5 -2.76,0 -5,-2.24 -5,-5 0,-2.76 2.24,-5 5,-5 2.76,0 5,2.24 5,5 z"
         transform="matrix(0.8,0,0,0.8,5.92,0.8)"
         id="path4810"
         style="fill:#ffffff;fill-rule:evenodd;stroke:#ffffff;stroke-width:1pt" />
    </marker>
    <marker
       refX="0"
       refY="0"
       orient="auto"
       id="marker4812"
       style="overflow:visible">
      <path
         d="m -2.5,-1 c 0,2.76 -2.24,5 -5,5 -2.76,0 -5,-2.24 -5,-5 0,-2.76 2.24,-5 5,-5 2.76,0 5,2.24 5,5 z"
         transform="matrix(0.8,0,0,0.8,5.92,0.8)"
         id="path4814"
         style="fill:#ffffff;fill-rule:evenodd;stroke:#ffffff;stroke-width:1pt" />
    </marker>
    <marker
       refX="0"
       refY="0"
       orient="auto"
       id="marker4816"
       style="overflow:visible">
      <path
         d="m -2.5,-1 c 0,2.76 -2.24,5 -5,5 -2.76,0 -5,-2.24 -5,-5 0,-2.76 2.24,-5 5,-5 2.76,0 5,2.24 5,5 z"
         transform="matrix(0.8,0,0,0.8,5.92,0.8)"
         id="path4818"
         style="fill:#ffffff;fill-rule:evenodd;stroke:#ffffff;stroke-width:1pt" />
    </marker>
    <marker
       refX="0"
       refY="0"
       orient="auto"
       id="marker4820"
       style="overflow:visible">
      <path
         d="m -2.5,-1 c 0,2.76 -2.24,5 -5,5 -2.76,0 -5,-2.24 -5,-5 0,-2.76 2.24,-5 5,-5 2.76,0 5,2.24 5,5 z"
         transform="matrix(0.8,0,0,0.8,5.92,0.8)"
         id="path4822"
         style="fill:#ffffff;fill-rule:evenodd;stroke:#ffffff;stroke-width:1pt" />
    </marker>
    <marker
       refX="0"
       refY="0"
       orient="auto"
       id="marker4824"
       style="overflow:visible">
      <path
         d="m -2.5,-1 c 0,2.76 -2.24,5 -5,5 -2.76,0 -5,-2.24 -5,-5 0,-2.76 2.24,-5 5,-5 2.76,0 5,2.24 5,5 z"
         transform="matrix(0.8,0,0,0.8,5.92,0.8)"
         id="path4826"
         style="fill:#ffffff;fill-rule:evenodd;stroke:#ffffff;stroke-width:1pt" />
    </marker>
    <marker
       refX="0"
       refY="0"
       orient="auto"
       id="marker4828"
       style="overflow:visible">
      <path
         d="m -2.5,-1 c 0,2.76 -2.24,5 -5,5 -2.76,0 -5,-2.24 -5,-5 0,-2.76 2.24,-5 5,-5 2.76,0 5,2.24 5,5 z"
         transform="matrix(0.8,0,0,0.8,5.92,0.8)"
         id="path4830"
         style="fill:#ffffff;fill-rule:evenodd;stroke:#ffffff;stroke-width:1pt" />
    </marker>
    <marker
       refX="0"
       refY="0"
       orient="auto"
       id="marker4832"
       style="overflow:visible">
      <path
         d="m -2.5,-1 c 0,2.76 -2.24,5 -5,5 -2.76,0 -5,-2.24 -5,-5 0,-2.76 2.24,-5 5,-5 2.76,0 5,2.24 5,5 z"
         transform="matrix(0.8,0,0,0.8,5.92,0.8)"
         id="path4834"
         style="fill:#ffffff;fill-rule:evenodd;stroke:#ffffff;stroke-width:1pt" />
    </marker>
    <marker
       refX="0"
       refY="0"
       orient="auto"
       id="marker4836"
       style="overflow:visible">
      <path
         d="m -2.5,-1 c 0,2.76 -2.24,5 -5,5 -2.76,0 -5,-2.24 -5,-5 0,-2.76 2.24,-5 5,-5 2.76,0 5,2.24 5,5 z"
         transform="matrix(0.8,0,0,0.8,5.92,0.8)"
         id="path4838"
         style="fill:#ffffff;fill-rule:evenodd;stroke:#ffffff;stroke-width:1pt" />
    </marker>
    <marker
       refX="0"
       refY="0"
       orient="auto"
       id="marker4840"
       style="overflow:visible">
      <path
         d="m -2.5,-1 c 0,2.76 -2.24,5 -5,5 -2.76,0 -5,-2.24 -5,-5 0,-2.76 2.24,-5 5,-5 2.76,0 5,2.24 5,5 z"
         transform="matrix(0.8,0,0,0.8,5.92,0.8)"
         id="path4842"
         style="fill:#ffffff;fill-rule:evenodd;stroke:#ffffff;stroke-width:1pt" />
    </marker>
    <marker
       refX="0"
       refY="0"
       orient="auto"
       id="marker4844"
       style="overflow:visible">
      <path
         d="m -2.5,-1 c 0,2.76 -2.24,5 -5,5 -2.76,0 -5,-2.24 -5,-5 0,-2.76 2.24,-5 5,-5 2.76,0 5,2.24 5,5 z"
         transform="matrix(0.8,0,0,0.8,5.92,0.8)"
         id="path4846"
         style="fill:#ffffff;fill-rule:evenodd;stroke:#ffffff;stroke-width:1pt" />
    </marker>
    <marker
       refX="0"
       refY="0"
       orient="auto"
       id="marker4848"
       style="overflow:visible">
      <path
         d="m -2.5,-1 c 0,2.76 -2.24,5 -5,5 -2.76,0 -5,-2.24 -5,-5 0,-2.76 2.24,-5 5,-5 2.76,0 5,2.24 5,5 z"
         transform="matrix(0.8,0,0,0.8,5.92,0.8)"
         id="path4850"
         style="fill:#ffffff;fill-rule:evenodd;stroke:#ffffff;stroke-width:1pt" />
    </marker>
    <marker
       refX="0"
       refY="0"
       orient="auto"
       id="marker4852"
       style="overflow:visible">
      <path
         d="m -2.5,-1 c 0,2.76 -2.24,5 -5,5 -2.76,0 -5,-2.24 -5,-5 0,-2.76 2.24,-5 5,-5 2.76,0 5,2.24 5,5 z"
         transform="matrix(0.8,0,0,0.8,5.92,0.8)"
         id="path4854"
         style="fill:#ffffff;fill-rule:evenodd;stroke:#ffffff;stroke-width:1pt" />
    </marker>
    <marker
       refX="0"
       refY="0"
       orient="auto"
       id="marker4856"
       style="overflow:visible">
      <path
         d="m -2.5,-1 c 0,2.76 -2.24,5 -5,5 -2.76,0 -5,-2.24 -5,-5 0,-2.76 2.24,-5 5,-5 2.76,0 5,2.24 5,5 z"
         transform="matrix(0.8,0,0,0.8,5.92,0.8)"
         id="path4858"
         style="fill:#ffffff;fill-rule:evenodd;stroke:#ffffff;stroke-width:1pt" />
    </marker>
    <marker
       refX="0"
       refY="0"
       orient="auto"
       id="marker4860"
       style="overflow:visible">
      <path
         d="m -2.5,-1 c 0,2.76 -2.24,5 -5,5 -2.76,0 -5,-2.24 -5,-5 0,-2.76 2.24,-5 5,-5 2.76,0 5,2.24 5,5 z"
         transform="matrix(0.8,0,0,0.8,5.92,0.8)"
         id="path4862"
         style="fill:#ffffff;fill-rule:evenodd;stroke:#ffffff;stroke-width:1pt" />
    </marker>
    <marker
       refX="0"
       refY="0"
       orient="auto"
       id="marker4864"
       style="overflow:visible">
      <path
         d="m -2.5,-1 c 0,2.76 -2.24,5 -5,5 -2.76,0 -5,-2.24 -5,-5 0,-2.76 2.24,-5 5,-5 2.76,0 5,2.24 5,5 z"
         transform="matrix(0.8,0,0,0.8,5.92,0.8)"
         id="path4866"
         style="fill:#ffffff;fill-rule:evenodd;stroke:#ffffff;stroke-width:1pt" />
    </marker>
    <marker
       refX="0"
       refY="0"
       orient="auto"
       id="marker4868"
       style="overflow:visible">
      <path
         d="m -2.5,-1 c 0,2.76 -2.24,5 -5,5 -2.76,0 -5,-2.24 -5,-5 0,-2.76 2.24,-5 5,-5 2.76,0 5,2.24 5,5 z"
         transform="matrix(0.8,0,0,0.8,5.92,0.8)"
         id="path4870"
         style="fill:#ffffff;fill-rule:evenodd;stroke:#ffffff;stroke-width:1pt" />
    </marker>
    <marker
       refX="0"
       refY="0"
       orient="auto"
       id="marker4872"
       style="overflow:visible">
      <path
         d="m -2.5,-1 c 0,2.76 -2.24,5 -5,5 -2.76,0 -5,-2.24 -5,-5 0,-2.76 2.24,-5 5,-5 2.76,0 5,2.24 5,5 z"
         transform="matrix(0.8,0,0,0.8,5.92,0.8)"
         id="path4874"
         style="fill:#ffffff;fill-rule:evenodd;stroke:#ffffff;stroke-width:1pt" />
    </marker>
    <marker
       refX="0"
       refY="0"
       orient="auto"
       id="marker4876"
       style="overflow:visible">
      <path
         d="m -2.5,-1 c 0,2.76 -2.24,5 -5,5 -2.76,0 -5,-2.24 -5,-5 0,-2.76 2.24,-5 5,-5 2.76,0 5,2.24 5,5 z"
         transform="matrix(0.8,0,0,0.8,5.92,0.8)"
         id="path4878"
         style="fill:#ffffff;fill-rule:evenodd;stroke:#ffffff;stroke-width:1pt" />
    </marker>
    <marker
       refX="0"
       refY="0"
       orient="auto"
       id="marker4880"
       style="overflow:visible">
      <path
         d="m -2.5,-1 c 0,2.76 -2.24,5 -5,5 -2.76,0 -5,-2.24 -5,-5 0,-2.76 2.24,-5 5,-5 2.76,0 5,2.24 5,5 z"
         transform="matrix(0.8,0,0,0.8,5.92,0.8)"
         id="path4882"
         style="fill:#ffffff;fill-rule:evenodd;stroke:#ffffff;stroke-width:1pt" />
    </marker>
    <marker
       refX="0"
       refY="0"
       orient="auto"
       id="marker4884"
       style="overflow:visible">
      <path
         d="m -2.5,-1 c 0,2.76 -2.24,5 -5,5 -2.76,0 -5,-2.24 -5,-5 0,-2.76 2.24,-5 5,-5 2.76,0 5,2.24 5,5 z"
         transform="matrix(0.8,0,0,0.8,5.92,0.8)"
         id="path4886"
         style="fill:#ffffff;fill-rule:evenodd;stroke:#ffffff;stroke-width:1pt" />
    </marker>
  </defs>
  <metadata
     id="metadata4613">
    <rdf:RDF>
      <cc:Work
         rdf:about="">
        <dc:format>image/svg+xml</dc:format>
        <dc:type
           rdf:resource="http://purl.org/dc/dcmitype/StillImage" />
        <dc:title></dc:title>
      </cc:Work>
    </rdf:RDF>
  </metadata>
  <g
     transform="translate(-113.48701,-257.71616)"
     id="layer1">
    <path
       d="m 118.00454,302.78931 0,26.17453 8.18568,0 c -4.45211,8.57776 -6.97042,18.31394 -6.97042,28.64641 0,34.39279 27.88629,62.28047 62.27862,62.28047 34.39232,0 62.28323,-27.88768 62.28323,-62.28047 0,-10.33247 -2.52293,-20.06865 -6.97504,-28.64641 l 8.18568,0 0,-26.17453 -33.83321,0 -14.34515,25.38022 c 10.62313,5.53544 17.87773,16.63497 17.87773,29.44072 0,18.33172 -14.86268,33.19255 -33.19324,33.19255 -18.33056,0 -33.19324,-14.86083 -33.19324,-33.19255 0,-12.75329 7.19453,-23.81633 17.74372,-29.37487 l -14.56464,-25.44607 -33.47972,0 z"
       id="path6942-6"
       style="fill:#ffffff;fill-opacity:0.6543779;stroke:none;display:inline" />
    <g
       id="text3165-4"
       style="font-size:96.03953552px;font-style:normal;font-variant:normal;font-weight:normal;font-stretch:normal;line-height:125%;letter-spacing:0px;word-spacing:0px;fill:#ffffff;fill-opacity:1;stroke:none;display:inline;font-family:Montserrat Alternates;-inkscape-font-specification:Montserrat Alternates">
      <path
         d="m 303.54417,354.45922 c -3.26537,6e-5 -5.95448,0.67233 -8.06732,2.01683 -2.11289,1.34461 -3.16933,3.39345 -3.16931,6.14653 -2e-5,2.68916 1.05642,4.77001 3.16931,6.24257 2.11284,1.40862 6.59468,2.94525 13.44553,4.6099 6.9148,1.66472 12.10093,4.00168 15.5584,7.01088 3.5214,3.00927 5.28212,7.4591 5.28218,13.3495 -6e-5,5.82641 -2.20896,10.56436 -6.62673,14.21385 -4.41786,3.6495 -10.21224,5.47425 -17.38315,5.47425 -10.50035,0 -19.81617,-3.61748 -27.94751,-10.85246 l 7.10693,-8.54752 c 6.78677,5.89044 13.82966,8.83565 21.12869,8.83564 3.64947,1e-5 6.53065,-0.76831 8.64356,-2.30495 2.17686,-1.60065 3.2653,-3.6815 3.26535,-6.24257 -5e-5,-2.62506 -1.02447,-4.64189 -3.07327,-6.05049 -1.98485,-1.47258 -5.44227,-2.78512 -10.37227,-3.93762 -4.93005,-1.21648 -8.67559,-2.30492 -11.23662,-3.26535 -2.56108,-1.02439 -4.83401,-2.33693 -6.81881,-3.93762 -3.96964,-3.0092 -5.95446,-7.61909 -5.95445,-13.82969 -1e-5,-6.2105 2.24091,-10.98046 6.72277,-14.30989 4.54585,-3.39333 10.14815,-5.09003 16.80691,-5.0901 4.28974,7e-5 8.54748,0.70436 12.77326,2.11287 4.22569,1.40865 7.87519,3.39346 10.94851,5.95445 l -6.05049,8.54752 c -1.98486,-1.79268 -4.67397,-3.26529 -8.06732,-4.41782 -3.39344,-1.15241 -6.75482,-1.72865 -10.08415,-1.72871"
         id="path5499"
         style="fill:#ffffff" />
      <path
         d="m 365.49013,360.89387 c 6.97884,5e-5 12.77322,1.95285 17.38316,5.85841 4.60984,3.84162 6.9468,8.86769 7.01089,15.07821 l 0.096,0.19208 -37.26334,15.65444 c 3.32934,4.0977 7.8432,6.14654 13.54157,6.14653 5.76234,1e-5 10.50028,-2.24091 14.21385,-6.72277 l 6.33861,7.01089 c -6.08255,6.27459 -13.25349,9.41187 -21.51285,9.41187 -7.23501,0 -13.44556,-2.40098 -18.63167,-7.20296 -5.18615,-4.80197 -7.77921,-11.14057 -7.77921,-19.01583 0,-5.44221 1.34455,-10.21217 4.03366,-14.30989 2.6891,-4.16167 6.01847,-7.20292 9.98811,-9.12376 3.96962,-1.98476 8.16334,-2.97717 12.58118,-2.97722 m -16.23068,26.60295 c -10e-6,0.83237 0.032,1.44062 0.096,1.82475 l 28.33167,-12.19702 c -2.17694,-4.2257 -6.05053,-6.33857 -11.62079,-6.33861 -4.22577,4e-5 -8.09936,1.47265 -11.62078,4.41782 -3.45744,2.94525 -5.18615,7.04293 -5.18614,12.29306"
         id="path5501"
         style="fill:#ffffff" />
      <path
         d="m 424.26628,360.89387 c 6.97884,5e-5 12.77322,1.95285 17.38316,5.85841 4.60984,3.84162 6.9468,8.86769 7.01089,15.07821 l 0.096,0.19208 -37.26334,15.65444 c 3.32934,4.0977 7.8432,6.14654 13.54157,6.14653 5.76233,1e-5 10.50028,-2.24091 14.21385,-6.72277 l 6.33861,7.01089 c -6.08255,6.27459 -13.25349,9.41187 -21.51286,9.41187 -7.235,0 -13.44555,-2.40098 -18.63167,-7.20296 -5.18614,-4.80197 -7.7792,-11.14057 -7.7792,-19.01583 0,-5.44221 1.34455,-10.21217 4.03366,-14.30989 2.6891,-4.16167 6.01847,-7.20292 9.98811,-9.12376 3.96962,-1.98476 8.16334,-2.97717 12.58118,-2.97722 m -16.23068,26.60295 c -10e-6,0.83237 0.032,1.44062 0.096,1.82475 l 28.33166,-12.19702 c -2.17693,-4.2257 -6.05052,-6.33857 -11.62078,-6.33861 -4.22577,4e-5 -8.09936,1.47265 -11.62078,4.41782 -3.45744,2.94525 -5.18615,7.04293 -5.18614,12.29306"
         id="path5503"
         style="fill:#ffffff" />
      <path
         d="m 480.64145,413.52353 c -6.46669,0 -12.101,-2.433 -16.90296,-7.299 -4.80198,-4.86599 -7.20297,-11.26862 -7.20296,-19.20791 -10e-6,-7.93923 2.465,-14.27783 7.39504,-19.01583 4.93001,-4.7379 10.78842,-7.10687 17.57523,-7.10692 6.85079,5e-5 12.35705,2.88123 16.5188,8.64356 l 0,-28.04355 10.75643,0 0,71.26134 -10.75643,0 0,-7.68316 c -3.96967,5.63432 -9.76405,8.45147 -17.38315,8.45147 m -13.3495,-26.02671 c -10e-6,4.86602 1.56863,8.83565 4.70594,11.9089 3.13727,3.07328 6.81878,4.60991 11.04455,4.6099 4.2257,10e-6 7.81117,-1.53662 10.75643,-4.6099 2.94516,-3.13727 4.41777,-7.13892 4.41781,-12.00494 -4e-5,-4.86597 -1.47265,-8.93164 -4.41781,-12.19702 -2.94526,-3.2653 -6.56274,-4.89797 -10.85247,-4.89802 -4.28979,5e-5 -7.97131,1.63272 -11.04455,4.89802 -3.07328,3.26538 -4.60991,7.36306 -4.6099,12.29306"
         id="path5505"
         style="fill:#ffffff" />
    </g>
    <g
       id="text4201-5"
       style="font-size:33.89762115px;font-style:normal;font-variant:normal;font-weight:normal;font-stretch:normal;line-height:125%;letter-spacing:0px;word-spacing:0px;fill:#ffffff;fill-opacity:0.70046088;stroke:none;display:inline;font-family:Montserrat;-inkscape-font-specification:Montserrat">
      <path
         d="m 294.94101,323.79553 c 1.37849,1e-5 2.5649,-0.22598 3.55925,-0.67795 0.99431,-0.47456 2.03384,-1.22031 3.11858,-2.23724 l 2.57622,2.64401 c -2.50844,2.77961 -5.55923,4.16941 -9.15236,4.16941 -3.57056,0 -6.54225,-1.15252 -8.91507,-3.45756 -2.35024,-2.30503 -3.52536,-5.22022 -3.52535,-8.74559 -1e-5,-3.52533 1.19771,-6.46312 3.59314,-8.81338 2.41803,-2.35021 5.45751,-3.52533 9.11846,-3.52535 3.68353,2e-5 6.75691,1.35593 9.22016,4.06771 l -2.54232,2.77961 c -1.12995,-1.08471 -2.20337,-1.84175 -3.22028,-2.27114 -0.99435,-0.42935 -2.16946,-0.64404 -3.52535,-0.64406 -2.39545,2e-5 -4.4067,0.77967 -6.03378,2.33894 -1.62709,1.53671 -2.44063,3.51407 -2.44063,5.93208 0,2.39545 0.80224,4.4067 2.40673,6.03378 1.62708,1.60449 3.54794,2.40674 5.7626,2.40673"
         id="path5476" />
      <path
         d="m 312.22856,322.67691 c 1.08472,1.08473 2.45192,1.62709 4.10161,1.62709 1.64967,0 3.00558,-0.54236 4.06772,-1.62709 1.08471,-1.10732 1.62707,-2.53102 1.62708,-4.2711 -10e-6,-1.74007 -0.54237,-3.15247 -1.62708,-4.2372 -1.06214,-1.10731 -2.41805,-1.66097 -4.06772,-1.66099 -1.64969,2e-5 -3.01689,0.55368 -4.10161,1.66099 -1.06213,1.08473 -1.59319,2.49713 -1.59319,4.2372 0,1.74008 0.53106,3.16378 1.59319,4.2711 m 10.88114,2.33894 c -1.80789,1.78527 -4.06773,2.67791 -6.77953,2.67791 -2.71181,0 -4.97165,-0.89264 -6.77952,-2.67791 -1.80788,-1.80787 -2.71181,-4.01122 -2.71181,-6.61004 0,-2.59881 0.90393,-4.79085 2.71181,-6.57614 1.80787,-1.80785 4.06771,-2.71179 6.77952,-2.71181 2.7118,2e-5 4.97164,0.90396 6.77953,2.71181 1.80785,1.78529 2.71179,3.97733 2.71181,6.57614 -2e-5,2.59882 -0.90396,4.80217 -2.71181,6.61004"
         id="path5478" />
      <path
         d="m 333.92331,317.66006 0,9.76252 -3.79653,0 0,-18.03354 3.79653,0 0,3.28807 c 0.61015,-1.1073 1.44629,-1.97734 2.50843,-2.61012 1.08471,-0.63273 2.24853,-0.94911 3.49145,-0.94913 2.03385,2e-5 3.67223,0.62148 4.91516,1.86437 1.26549,1.24293 1.89825,3.0395 1.89826,5.38972 l 0,11.05063 -3.79653,0 0,-9.89811 c -1e-5,-3.32195 -1.37852,-4.98293 -4.13551,-4.98295 -1.31072,2e-5 -2.45194,0.44068 -3.42366,1.32201 -0.97174,0.85875 -1.4576,2.12426 -1.4576,3.79653"
         id="path5480" />
      <path
         d="m 359.38029,327.69376 c -2.28245,0 -4.2711,-0.85874 -5.96598,-2.57622 -1.69488,-1.71748 -2.54232,-3.97732 -2.54232,-6.77953 0,-2.80219 0.87004,-5.03943 2.61012,-6.71172 1.74007,-1.67227 3.80782,-2.50841 6.20326,-2.50843 2.41802,2e-5 4.36148,1.01695 5.83039,3.05079 l 0,-9.89811 3.79654,0 0,25.15204 -3.79654,0 0,-2.71181 c -1.40112,1.98866 -3.44627,2.98299 -6.13547,2.98299 m -4.71177,-9.18626 c 0,1.71749 0.55366,3.11859 1.66099,4.20331 1.10731,1.08473 2.40672,1.62709 3.89822,1.62708 1.49149,10e-6 2.757,-0.54235 3.79654,-1.62708 1.03951,-1.10732 1.55927,-2.51972 1.55929,-4.23721 -2e-5,-1.71746 -0.51978,-3.15246 -1.55929,-4.30499 -1.03954,-1.15251 -2.31635,-1.72877 -3.83044,-1.72878 -1.5141,1e-5 -2.81351,0.57627 -3.89822,1.72878 -1.08473,1.15253 -1.62709,2.59883 -1.62709,4.33889"
         id="path5482" />
      <path
         d="m 387.41353,319.15156 0,-9.76252 3.79653,0 0,18.03354 -3.79653,0 0,-3.28807 c -0.61017,1.10732 -1.45761,1.97736 -2.54232,2.61011 -1.06214,0.63276 -2.21466,0.94914 -3.45756,0.94914 -2.03386,0 -3.68355,-0.62146 -4.94905,-1.86437 -1.24292,-1.24291 -1.86437,-3.03948 -1.86437,-5.38972 l 0,-11.05063 3.79653,0 0,9.89811 c 0,3.32197 1.3785,4.98295 4.13551,4.98295 1.3107,0 2.45192,-0.42937 3.42366,-1.28811 0.97172,-0.88133 1.45758,-2.15814 1.4576,-3.83043"
         id="path5484" />
      <path
         d="m 404.70118,327.69376 c -2.50843,0 -4.66658,-0.84744 -6.47444,-2.54232 -1.80788,-1.71748 -2.71182,-3.95472 -2.71181,-6.71173 -10e-6,-2.757 0.93783,-4.99424 2.8135,-6.71173 1.89826,-1.74006 4.20329,-2.6101 6.91511,-2.61012 2.7118,2e-5 5.00554,0.93785 6.88122,2.8135 l -2.23724,2.74571 c -1.55931,-1.35589 -3.1299,-2.03384 -4.71177,-2.03386 -1.5819,2e-5 -2.9604,0.53108 -4.13551,1.59319 -1.15253,1.03954 -1.72879,2.39544 -1.72878,4.06772 -1e-5,1.64969 0.57625,3.05079 1.72878,4.2033 1.15251,1.15252 2.56491,1.72878 4.2372,1.72878 1.69487,0 3.28806,-0.76834 4.77957,-2.30504 l 2.23724,2.44063 c -2.19206,2.21465 -4.72308,3.32197 -7.59307,3.32197"
         id="path5486" />
      <path
         d="m 420.90386,312.43983 0,9.15236 c 0,0.85874 0.22598,1.54799 0.67796,2.06775 0.45196,0.49717 1.08471,0.74575 1.89826,0.74575 0.81354,0 1.59318,-0.39547 2.33894,-1.18642 l 1.55929,2.67791 c -1.33332,1.19772 -2.81351,1.79658 -4.44059,1.79658 -1.60449,0 -2.983,-0.55366 -4.13551,-1.66099 -1.12992,-1.12991 -1.69488,-2.64401 -1.69488,-4.54228 l 0,-9.05066 -2.27114,0 0,-3.05079 2.27114,0 0,-5.6609 3.79653,0 0,5.6609 4.74567,0 0,3.05079 -4.74567,0"
         id="path5488" />
      <path
         d="m 445.00504,327.42258 -3.45756,0 0,-2.40673 c -1.4915,1.78527 -3.49146,2.67791 -5.99987,2.67791 -1.87568,0 -3.43497,-0.53106 -4.67788,-1.59319 -1.22031,-1.06212 -1.83047,-2.47452 -1.83047,-4.2372 0,-1.78527 0.65535,-3.11858 1.96606,-3.99992 1.31071,-0.88133 3.08468,-1.322 5.32193,-1.32201 l 4.91516,0 0,-0.67795 c -2e-5,-2.39542 -1.33332,-3.59313 -3.99992,-3.59315 -1.67229,2e-5 -3.41237,0.61017 -5.22024,1.83047 l -1.69488,-2.37283 c 2.19204,-1.74006 4.67787,-2.6101 7.45748,-2.61012 2.12424,2e-5 3.85301,0.54238 5.18633,1.62709 1.35589,1.06214 2.03384,2.74572 2.03386,5.05074 l 0,11.62689 m -3.79653,-6.71173 0,-1.5254 -4.2711,0 c -2.73442,10e-6 -4.10162,0.85875 -4.10161,2.57622 -1e-5,0.88135 0.33897,1.5593 1.01692,2.03386 0.67795,0.45197 1.61578,0.67796 2.81351,0.67795 1.2203,1e-5 2.28243,-0.33897 3.18637,-1.01692 0.90393,-0.67795 1.35589,-1.59319 1.35591,-2.74571"
         id="path5490" />
      <path
         d="m 454.0898,317.66006 0,9.76252 -3.79653,0 0,-18.03354 3.79653,0 0,3.28807 c 0.61015,-1.1073 1.44629,-1.97734 2.50843,-2.61012 1.08471,-0.63273 2.24853,-0.94911 3.49145,-0.94913 2.03384,2e-5 3.67223,0.62148 4.91516,1.86437 1.26549,1.24293 1.89824,3.0395 1.89826,5.38972 l 0,11.05063 -3.79653,0 0,-9.89811 c -2e-5,-3.32195 -1.37852,-4.98293 -4.13551,-4.98295 -1.31072,2e-5 -2.45194,0.44068 -3.42366,1.32201 -0.97174,0.85875 -1.4576,2.12426 -1.4576,3.79653"
         id="path5492" />
      <path
         d="m 480.19084,327.69376 c -2.50843,0 -4.66658,-0.84744 -6.47444,-2.54232 -1.80788,-1.71748 -2.71181,-3.95472 -2.71181,-6.71173 0,-2.757 0.93783,-4.99424 2.8135,-6.71173 1.89826,-1.74006 4.2033,-2.6101 6.91512,-2.61012 2.71179,2e-5 5.00553,0.93785 6.88121,2.8135 l -2.23724,2.74571 c -1.55931,-1.35589 -3.12989,-2.03384 -4.71177,-2.03386 -1.5819,2e-5 -2.9604,0.53108 -4.13551,1.59319 -1.15252,1.03954 -1.72878,2.39544 -1.72878,4.06772 0,1.64969 0.57626,3.05079 1.72878,4.2033 1.15251,1.15252 2.56491,1.72878 4.2372,1.72878 1.69487,0 3.28806,-0.76834 4.77957,-2.30504 l 2.23724,2.44063 c -2.19206,2.21465 -4.72308,3.32197 -7.59307,3.32197"
         id="path5494" />
      <path
         d="m 508.49497,320.06679 -14.13531,0 c 0.0904,1.31072 0.68925,2.37284 1.79658,3.18638 1.10731,0.79095 2.37282,1.18642 3.79653,1.18642 2.25983,0 3.97731,-0.71185 5.15244,-2.13555 l 2.16945,2.37283 c -1.94348,2.01126 -4.4745,3.01689 -7.59307,3.01689 -2.53103,0 -4.68918,-0.83614 -6.47445,-2.50843 -1.76268,-1.69487 -2.64401,-3.95471 -2.64401,-6.77952 0,-2.84739 0.90393,-5.10723 2.71181,-6.77952 1.80787,-1.67227 3.93211,-2.50841 6.37275,-2.50843 2.46321,2e-5 4.55357,0.74577 6.27106,2.23724 1.71746,1.46892 2.5762,3.50277 2.57622,6.10158 l 0,2.61011 m -14.13531,-2.98299 10.33878,0 c -2e-5,-1.51408 -0.47459,-2.6779 -1.4237,-3.49145 -0.94915,-0.81353 -2.12427,-1.2203 -3.52536,-1.22032 -1.37851,2e-5 -2.62142,0.42939 -3.72873,1.28811 -1.10733,0.83616 -1.66099,1.97738 -1.66099,3.42366"
         id="path5496" />
    </g>
  </g>
</svg>
