<?xml version="1.0" encoding="UTF-8" standalone="no"?>
<!-- Created with Inkscape (http://www.inkscape.org/) -->
<svg xmlns:rdf="http://www.w3.org/1999/02/22-rdf-syntax-ns#" xmlns="http://www.w3.org/2000/svg" version="1.1" xmlns:cc="http://creativecommons.org/ns#" xmlns:dc="http://purl.org/dc/elements/1.1/" viewBox="0 0 100 100">
<metadata>
<rdf:RDF>
<cc:Work rdf:about="">
<dc:format>image/svg+xml</dc:format>
<dc:type rdf:resource="http://purl.org/dc/dcmitype/StillImage"/>
<dc:title/>
</cc:Work>
</rdf:RDF>
</metadata>
<g fill-rule="nonzero" transform="translate(0,-952.36218)" display="none">
<path style="enable-background:accumulate;color:#000000;" d="m95,60.5a27.5,27.5,0,1,1,-55,0,27.5,27.5,0,1,1,55,0z" fill-opacity="0.35944711" transform="matrix(1.8181818,0,0,1.8181818,-72.727271,892.36218)" fill="#FFF"/>
<path style="enable-background:accumulate;color:#000000;" d="M100,50a50,50,0,0,1,-50,50v-50z" transform="matrix(0,-1,1,0,0,1052.3622)" fill="#FFF"/>
<path style="enable-background:accumulate;color:#000000;" d="m95,60.5a27.5,27.5,0,1,1,-55,0,27.5,27.5,0,1,1,55,0z" transform="matrix(1.2727273,0,0,1.2727273,-35.909096,925.36217)" fill="#383838"/>
</g>
<g fill="#FFF" transform="translate(0,-952.36218)" fill-rule="nonzero">
<path style="enable-background:accumulate;color:#000000;" d="M50,0c-27.614,4.737E-15-50,22.386-50,50s22.386,50,50,50,50-22.386,50-50-22.386-50-50-50zm0,15c19.33,0,35,15.67,35,35s-15.67,35-35,35-35-15.67-35-35,15.67-35,35-35z" fill-opacity="0.36866361" transform="translate(0,952.36218)"/>
<path style="enable-background:accumulate;color:#000000;" d="M50,0v15c19.33,0,35,15.67,35,35h15c0-27.614-22.386-50-50-50z" transform="translate(0,952.36218)"/>
</g>
</svg>
